<?xml version="1.0" encoding="UTF-8"?>
<!DOCTYPE svg PUBLIC "-//W3C//DTD SVG 1.1//EN" "http://www.w3.org/Graphics/SVG/1.1/DTD/svg11.dtd">
<!-- Creator: CorelDRAW 2020 (64-Bit Evaluation Version) -->
<svg xmlns="http://www.w3.org/2000/svg" xml:space="preserve" width="409.696mm" height="126.727mm" version="1.1" style="shape-rendering:geometricPrecision; text-rendering:geometricPrecision; image-rendering:optimizeQuality; fill-rule:evenodd; clip-rule:evenodd"
viewBox="0 0 39762.96 12299.46"
 xmlns:xlink="http://www.w3.org/1999/xlink"
 xmlns:xodm="http://www.corel.com/coreldraw/odm/2003">
 <defs>
  <style type="text/css">
   <![CDATA[
    .fil0 {fill:#2B2A29;fill-rule:nonzero}
   ]]>
  </style>
 </defs>
 <g id="Layer_x0020_1">
  <metadata id="CorelCorpID_0Corel-Layer"/>
  <path class="fil0" d="M8521.36 115.2c534.38,0 993.49,110.92 1376.5,332.76 383.01,221.87 574.11,745.55 574.11,1570.02 0,469.32 -90.37,876.59 -271.36,1223.38 -181.36,347.55 -734.19,539.15 -1089.9,659.66 292.84,87.49 800.02,290.22 950.93,523.19 151.02,233.11 263.88,497.05 337.52,791.42 74.45,293.34 126.55,597.31 156.35,910.88 29.77,312.53 71.14,594.11 122.43,841.57l-1398.01 0c-18.18,-183.46 -28.95,-394.64 -33.91,-634.64 -4.96,-238.91 -27.3,-478.92 -67,-717.83 -39.71,-239.97 -108.37,-466.11 -205.99,-680.47 -97.61,-213.35 -248.16,-386.15 -451.66,-519.45l0 -1538.04c159.66,-35.19 294.49,-98.13 404.51,-188.78 110.02,-90.67 164.61,-258.13 164.61,-501.31 0,-239.98 -51.28,-411.73 -153.87,-514.12 -102.57,-103.44 -240.7,-159.98 -415.26,-170.63l0 -1387.64zm-5542.36 5722.28l-220.89 1130.62c-1523.66,960.89 -3147.27,6868.06 -2674.76,4951.21l2909.71 -11804.1 1500.56 0 1671.81 6852.9 -1405.44 0 -215.91 -1130.62 -588.98 0 291.19 -1481.49 -489.73 -2465.97 -492.19 2465.97 9.94 0 -292.84 1481.49 -2.47 0zm3477.63 1130.62l0 -6852.9 1366.55 0 0 6852.9 -1366.55 0zm7124.84 100.24l0 -1674.54c164.6,-108.78 283.72,-286.94 356.53,-533.33 72.79,-246.39 124.08,-477.82 154.68,-692.2l1204.44 0c0,708.22 -140.64,1350.31 -421.9,1926.28 -280.43,575.98 -712.23,900.18 -1293.75,973.79zm458.25 -4521.31c-33.91,-169.57 -81.05,-326.35 -142.28,-470.36 -60.37,-145.06 -151.37,-265.6 -272.13,-361.6 -9.94,-7.45 -24.82,-18.11 -43.84,-30.93l0 -1656.4c496.32,77.85 898.37,354.07 1207.73,831.92 309.38,476.79 464.07,1038.87 464.07,1687.36l-1213.54 0zm-1156.43 4511.73c-700.67,-100.25 -1195.35,-507.72 -1483.22,-1223.41 -287.05,-715.67 -430.96,-1484.69 -430.96,-2307.02 0,-825.56 141.46,-1589.23 425.18,-2291.09 283.73,-701.8 780.07,-1106.05 1489,-1212.73l0 1669.25c-244.04,168.52 -394.6,436.23 -451.67,804.2 -57.09,367.97 -86.04,707.16 -86.04,1017.55 0,308.24 23.16,665.53 68.67,1071.9 46.32,406.41 202.66,683.71 469.05,834.11l0 1637.24zm2705 -6943.55l1366.56 0 0 6852.9 -1366.56 0 0 -6852.9zm2064.73 2399.83l813.98 0 0 -2399.83 1381.46 0 0 6852.9 -1381.46 0 0 -2772.12 -813.98 0 0 -1680.95zm3863.11 1041.01c0,325.32 31.44,679.41 94.3,1063.38 62.89,385.05 229.99,650.65 502.12,798.89l0 1637.24c-699.82,-98.14 -1203.6,-495.99 -1511.31,-1193.53 -307.72,-697.56 -461.59,-1469.77 -461.59,-2315.6 0,-835.12 150.53,-1605.22 451.67,-2310.23 301.09,-706.12 808.17,-1110.34 1521.23,-1214.86l0 1662.81c-270.49,150.41 -436.76,419.19 -500.46,806.37 -64.52,387.17 -95.96,742.34 -95.96,1065.53zm1293.77 1849.45c271.33,-155.71 434.3,-437.3 487.23,-844.72 53.77,-407.44 80.24,-773.29 80.24,-1098.61 0,-308.25 -33.1,-639.96 -98.42,-995.14 -65.36,-355.16 -221.7,-609.02 -469.06,-760.48l0 -1678.81c699.83,110.89 1198.64,507.69 1495.61,1192.44 296.97,684.76 445.88,1440.97 445.88,2269.74 0,836.21 -146.41,1615.87 -440.09,2339.04 -292.81,724.2 -793.3,1133.78 -1501.4,1229.8l0 -1653.26zm2232.69 -5290.3l1283.83 0 2971.37 6852.9 -1296.24 0 -1665.21 -3761.91 0 3761.91 -1293.75 0 0 -6852.9zm2958.96 2213.18l0 -2213.18 1296.24 0 0 5144.19 -1296.24 -2931.01zm1587.44 -2213.18l1376.48 0 0 4949.12 -1376.48 1903.78 0 -6852.9zm2976.33 4459.43c23.99,293.33 93.48,561.02 208.46,801.03 114.15,241.04 305.24,361.58 571.6,361.58 160.48,0 301.93,-61.87 425.19,-184.53 124.08,-122.66 185.31,-295.44 185.31,-518.37 0,-333.84 -131.53,-570.63 -396.25,-709.3 -263.88,-139.7 -554.22,-284.77 -871.05,-435.17 -316.82,-149.33 -606.36,-356.25 -870.24,-618.62 -263.06,-262.39 -394.59,-683.71 -394.59,-1264.98 0,-708.26 191.94,-1220.18 575.76,-1534.85 383.83,-314.63 821.41,-471.43 1314.43,-471.43 525.3,0 962.07,178.14 1311.14,534.38 349.1,356.25 523.63,898.06 523.63,1624.43l-1297.07 0c-28.96,-253.87 -95.12,-465.05 -198.54,-632.51 -103.39,-167.46 -261.38,-251.71 -474.81,-251.71 -129.05,0 -241.55,44.79 -338.31,134.37 -95.99,89.6 -143.96,223.98 -143.96,403.19 0,248.51 135.66,428.76 406.17,543.96 270.48,114.13 568.28,250.63 892.57,407.44 325.08,157.85 622.89,379.72 893.4,665.57 270.49,286.89 406.14,723.14 406.14,1310.85 0,754.09 -190.25,1333.23 -570.76,1736.4 -380.53,403.2 -847.07,604.78 -1399.68,604.78 -625.34,0 -1126.65,-207.99 -1503.04,-621.82 -376.39,-414.91 -564.17,-1043.14 -564.17,-1884.7l1308.67 0zm3019.35 -4459.43l2733.13 0c0,3998.74 2.39,8181.82 2.39,12180.56 -223.93,-1800.63 -549.77,-4280.72 -1335.05,-5327.66l0 -5159.18 -1400.47 0 0 -1693.72zm3431.31 0l746.97 0 0 1693.72 -746.97 0 0 -1693.72z"/>
 </g>
</svg>
